# Blender 4.5.1 LTS
# www.blender.org
mtllib monitor.mtl
o Cube
v -1.920000 -1.080000 0.008490
v -1.920000 1.080000 0.008490
v -1.920000 -1.080000 -0.152490
v -1.920000 1.080000 -0.152490
v 1.920000 -1.080000 0.008490
v 1.920000 1.080000 0.008490
v 1.920000 -1.080000 -0.152490
v 1.920000 1.080000 -0.152490
v -1.920000 1.130000 0.008490
v -1.920000 1.130000 -0.152490
v 1.920000 1.130000 -0.152490
v 1.920000 1.130000 0.008490
v 1.970000 1.080000 -0.152490
v 1.970000 -1.080000 -0.152490
v 1.970000 -1.080000 0.008490
v 1.970000 1.080000 0.008490
v -1.920000 -1.130000 -0.152490
v -1.920000 -1.130000 0.008490
v 1.920000 -1.130000 -0.152490
v 1.920000 -1.130000 0.008490
v -1.970000 -1.080000 -0.152490
v -1.970000 -1.080000 0.008490
v -1.970000 1.080000 0.008490
v -1.970000 1.080000 -0.152490
v -1.920000 -1.080000 -0.001510
v -1.920000 1.080000 -0.001510
v 1.920000 1.080000 -0.001510
v 1.920000 -1.080000 -0.001510
v 1.920000 1.130000 -0.152490
v 1.970000 1.080000 -0.152490
v 1.945000 1.123301 -0.152490
v 1.963301 1.105000 -0.152490
v 1.970000 1.080000 0.008490
v 1.920000 1.130000 0.008490
v 1.963301 1.105000 0.008490
v 1.945000 1.123301 0.008490
v 1.920000 -1.130000 0.008490
v 1.970000 -1.080000 0.008490
v 1.945000 -1.123301 0.008490
v 1.963301 -1.105000 0.008490
v 1.970000 -1.080000 -0.152490
v 1.920000 -1.130000 -0.152490
v 1.963301 -1.105000 -0.152490
v 1.945000 -1.123301 -0.152490
v -1.920000 -1.130000 -0.152490
v -1.970000 -1.080000 -0.152490
v -1.945000 -1.123301 -0.152490
v -1.963301 -1.105000 -0.152490
v -1.920000 1.130000 0.008490
v -1.970000 1.080000 0.008490
v -1.945000 1.123301 0.008490
v -1.963301 1.105000 0.008490
v -1.970000 1.080000 -0.152490
v -1.920000 1.130000 -0.152490
v -1.963301 1.105000 -0.152490
v -1.945000 1.123301 -0.152490
v -1.970000 -1.080000 0.008490
v -1.920000 -1.130000 0.008490
v -1.963301 -1.105000 0.008490
v -1.945000 -1.123301 0.008490
vn -0.0000 -0.0000 -1.0000
vn -0.0000 1.0000 -0.0000
vn -0.0000 -0.0000 1.0000
vn 1.0000 -0.0000 -0.0000
vn -0.0000 -1.0000 -0.0000
vn -1.0000 -0.0000 -0.0000
vn 0.2588 0.9659 -0.0000
vn 0.7071 0.7071 -0.0000
vn 0.9659 0.2588 -0.0000
vn 0.2588 -0.9659 -0.0000
vn 0.7071 -0.7071 -0.0000
vn 0.9659 -0.2588 -0.0000
vn -0.2588 0.9659 -0.0000
vn -0.7071 0.7071 -0.0000
vn -0.9659 0.2588 -0.0000
vn -0.2588 -0.9659 -0.0000
vn -0.7071 -0.7071 -0.0000
vn -0.9659 -0.2588 -0.0000
vt 0.375000 0.250000
vt 0.625000 0.250000
vt 0.625000 0.500000
vt 0.375000 0.500000
vt 0.375000 1.000000
vt 0.375000 0.750000
vt 0.875000 0.500000
vt 0.875000 0.750000
vt 0.625000 0.750000
vt 0.625000 1.000000
vt 0.125000 0.500000
vt 0.125000 0.750000
vt 0.375000 0.000000
vt 0.625000 0.000000
vt 0.625000 0.500000
vt 0.625000 0.750000
vt 0.625000 0.750000
vt 0.375000 0.500000
vt 0.375000 0.750000
vt 0.875000 0.750000
vt 0.625000 0.250000
vt 0.625000 0.250000
vt 0.125000 0.750000
vt 0.375000 0.250000
vt 0.375000 0.250000
vt 0.625000 1.000000
vt 0.375000 1.000000
s 0
f 3/1/1 4/2/1 8/3/1 7/4/1
f 7/4/1 8/3/1 13/3/1 14/4/1
f 1/5/2 5/6/2 28/6/2 25/5/2
f 11/3/2 10/7/2 9/8/2 12/9/2
f 1/5/3 2/10/3 23/10/3 22/5/3
f 2/10/3 6/9/3 12/9/3 9/10/3
f 8/3/1 4/2/1 10/2/1 11/3/1
f 14/4/4 13/3/4 16/9/4 15/6/4
f 6/9/3 5/6/3 15/6/3 16/9/3
f 4/2/1 3/1/1 21/1/1 24/2/1
f 17/11/5 19/4/5 20/6/5 18/12/5
f 5/6/3 1/5/3 18/5/3 20/6/3
f 3/1/1 7/4/1 19/4/1 17/1/1
f 22/13/6 23/14/6 24/2/6 21/1/6
f 28/6/3 27/9/3 26/10/3 25/5/3
f 6/9/5 2/10/5 26/10/5 27/9/5
f 5/6/6 6/9/6 27/9/6 28/6/6
f 2/10/4 1/5/4 25/5/4 26/10/4
f 29/15/7 34/9/7 36/16/7 31/3/7
f 31/3/8 36/16/8 35/9/8 32/15/8
f 32/15/9 35/9/9 33/17/9 30/3/9
f 37/6/10 42/4/10 44/4/10 39/6/10
f 39/6/11 44/4/11 43/4/11 40/6/11
f 40/6/12 43/4/12 41/18/12 38/19/12
f 49/20/13 54/7/13 56/7/13 51/8/13
f 51/14/14 56/21/14 55/2/14 52/14/14
f 52/14/15 55/2/15 53/22/15 50/14/15
f 45/11/16 58/23/16 60/23/16 47/11/16
f 47/11/17 60/23/17 59/12/17 48/11/17
f 48/24/18 59/13/18 57/13/18 46/24/18
f 11/3/2 12/9/2 34/9/2 29/15/2
f 16/9/2 13/3/2 30/3/2 33/17/2
f 8/3/1 11/3/1 29/15/1 31/3/1 32/15/1 30/3/1 13/3/1
f 12/9/3 6/9/3 16/9/3 33/17/3 35/9/3 36/16/3 34/9/3
f 14/4/2 15/6/2 38/19/2 41/18/2
f 20/6/2 19/4/2 42/4/2 37/6/2
f 15/6/3 5/6/3 20/6/3 37/6/3 39/6/3 40/6/3 38/19/3
f 7/4/1 14/4/1 41/18/1 43/4/1 44/4/1 42/4/1 19/4/1
f 3/1/1 17/1/1 45/1/1 47/25/1 48/24/1 46/24/1 21/1/1
f 22/13/2 21/1/2 46/24/2 57/13/2
f 17/11/2 18/12/2 58/23/2 45/11/2
f 24/2/2 23/14/2 50/14/2 53/22/2
f 2/10/3 9/10/3 49/10/3 51/26/3 52/10/3 50/10/3 23/10/3
f 9/8/2 10/7/2 54/7/2 49/20/2
f 10/2/1 4/2/1 24/2/1 53/22/1 55/2/1 56/21/1 54/2/1
f 18/5/3 1/5/3 22/5/3 57/5/3 59/5/3 60/27/3 58/5/3
